# xmcd
#
# Track frame offsets:
#	150
#	15798
#	29821
#	44310
#	55802
#	71754
#	84379
#	97773
#	117234
#	128436
#	144185
#	154726
#	168652
#	183012
#	195549
#	207708
#	227846
#	243694
#	257458
#	275889
#	289268
#	301641
#	313885
#
# Disc length: 4403 seconds
#
# Revision: 0
# Processed by: cddbd v1.4PL0 Copyright (c) Steve Scherf et al.
# Submitted via: EasyCDDAExtractor 4.5.0.2
#
DISCID=40113117
DTITLE=Intocable - Super Exitos
DYEAR=1900
DGENRE=
TTITLE0=Amor maldito
TTITLE1=La mentira
TTITLE2=¿Ytodo para que
TTITLE3=Lelevame contigo
TTITLE4=Fuego eterno
TTITLE5=Vete ya
TTITLE6=Parece que no
TTITLE7=El perdedor
TTITLE8=No me vayas a dejar
TTITLE9=No te vayas
TTITLE10=Muchachita
TTITLE11=Coqueta
TTITLE12=El mejor de mis recuerdos
TTITLE13=Magico Amor
TTITLE14=Por que te di mi corazon
TTITLE15=Fuerte no soy
TTITLE16=Eres mi droga
TTITLE17=La deje que se marchara
TTITLE18=Donde estas
TTITLE19=Soñador eterno
TTITLE20=Me has robado la calma
TTITLE21=Donde quiera que estes
TTITLE22=El amigo que se fue
EXTD=
EXTT0=
EXTT1=
EXTT2=
EXTT3=
EXTT4=
EXTT5=
EXTT6=
EXTT7=
EXTT8=
EXTT9=
EXTT10=
EXTT11=
EXTT12=
EXTT13=
EXTT14=
EXTT15=
EXTT16=
EXTT17=
EXTT18=
EXTT19=
EXTT20=
EXTT21=
EXTT22=
PLAYORDER=
